<mxfile host="app.diagrams.net" modified="2023-06-15T09:00:30.081Z" agent="Mozilla/5.0 (Windows NT 10.0; Win64; x64; rv:109.0) Gecko/20100101 Firefox/112.0" etag="kshP0G-In5EVnFuct2Ef" version="21.3.8" type="github">
  <diagram name="第 1 页" id="1bQIUgzjlXshrciDbQEI">
    <mxGraphModel dx="1728" dy="922" grid="1" gridSize="10" guides="1" tooltips="1" connect="1" arrows="1" fold="1" page="1" pageScale="1" pageWidth="827" pageHeight="1169" math="0" shadow="0">
      <root>
        <mxCell id="0" />
        <mxCell id="1" parent="0" />
        <mxCell id="SjhaU8M4ZDdy4UAupOeV-17" style="edgeStyle=orthogonalEdgeStyle;rounded=0;orthogonalLoop=1;jettySize=auto;html=1;entryX=0.5;entryY=0;entryDx=0;entryDy=0;" parent="1" source="SjhaU8M4ZDdy4UAupOeV-1" target="SjhaU8M4ZDdy4UAupOeV-14" edge="1">
          <mxGeometry relative="1" as="geometry" />
        </mxCell>
        <mxCell id="SjhaU8M4ZDdy4UAupOeV-1" value="" style="ellipse;fillColor=strokeColor;html=1;" parent="1" vertex="1">
          <mxGeometry x="215" y="40" width="30" height="30" as="geometry" />
        </mxCell>
        <mxCell id="SjhaU8M4ZDdy4UAupOeV-25" style="rounded=0;orthogonalLoop=1;jettySize=auto;html=1;entryX=0.3;entryY=0.513;entryDx=0;entryDy=0;entryPerimeter=0;" parent="1" source="SjhaU8M4ZDdy4UAupOeV-2" target="SjhaU8M4ZDdy4UAupOeV-16" edge="1">
          <mxGeometry relative="1" as="geometry" />
        </mxCell>
        <mxCell id="SjhaU8M4ZDdy4UAupOeV-2" value="决定搜索内容" style="html=1;align=center;verticalAlign=top;rounded=1;absoluteArcSize=1;arcSize=10;dashed=0;whiteSpace=wrap;" parent="1" vertex="1">
          <mxGeometry x="245" y="220" width="90" height="40" as="geometry" />
        </mxCell>
        <mxCell id="SjhaU8M4ZDdy4UAupOeV-32" style="edgeStyle=orthogonalEdgeStyle;rounded=0;orthogonalLoop=1;jettySize=auto;html=1;entryX=0;entryY=0.5;entryDx=0;entryDy=0;" parent="1" source="7Bqvf9NQ2BH0YnOYJtHq-1" target="SjhaU8M4ZDdy4UAupOeV-13" edge="1">
          <mxGeometry relative="1" as="geometry" />
        </mxCell>
        <mxCell id="7Bqvf9NQ2BH0YnOYJtHq-2" style="edgeStyle=orthogonalEdgeStyle;rounded=0;orthogonalLoop=1;jettySize=auto;html=1;exitX=0.5;exitY=1;exitDx=0;exitDy=0;" edge="1" parent="1" source="7Bqvf9NQ2BH0YnOYJtHq-3" target="7Bqvf9NQ2BH0YnOYJtHq-1">
          <mxGeometry relative="1" as="geometry" />
        </mxCell>
        <mxCell id="7Bqvf9NQ2BH0YnOYJtHq-4" style="edgeStyle=orthogonalEdgeStyle;rounded=0;orthogonalLoop=1;jettySize=auto;html=1;" edge="1" parent="1" source="SjhaU8M4ZDdy4UAupOeV-6" target="7Bqvf9NQ2BH0YnOYJtHq-3">
          <mxGeometry relative="1" as="geometry" />
        </mxCell>
        <mxCell id="SjhaU8M4ZDdy4UAupOeV-6" value="增加搜索记录" style="html=1;align=center;verticalAlign=top;rounded=1;absoluteArcSize=1;arcSize=10;dashed=0;whiteSpace=wrap;" parent="1" vertex="1">
          <mxGeometry x="185" y="510" width="90" height="40" as="geometry" />
        </mxCell>
        <mxCell id="SjhaU8M4ZDdy4UAupOeV-33" style="edgeStyle=orthogonalEdgeStyle;rounded=0;orthogonalLoop=1;jettySize=auto;html=1;entryX=0;entryY=0.5;entryDx=0;entryDy=0;" parent="1" source="SjhaU8M4ZDdy4UAupOeV-8" target="SjhaU8M4ZDdy4UAupOeV-12" edge="1">
          <mxGeometry relative="1" as="geometry" />
        </mxCell>
        <mxCell id="SjhaU8M4ZDdy4UAupOeV-8" value="告知用户失败" style="html=1;align=center;verticalAlign=top;rounded=1;absoluteArcSize=1;arcSize=10;dashed=0;whiteSpace=wrap;" parent="1" vertex="1">
          <mxGeometry x="340" y="430" width="95" height="40" as="geometry" />
        </mxCell>
        <mxCell id="SjhaU8M4ZDdy4UAupOeV-28" style="edgeStyle=orthogonalEdgeStyle;rounded=0;orthogonalLoop=1;jettySize=auto;html=1;entryX=0.5;entryY=0;entryDx=0;entryDy=0;" parent="1" source="SjhaU8M4ZDdy4UAupOeV-9" target="SjhaU8M4ZDdy4UAupOeV-10" edge="1">
          <mxGeometry relative="1" as="geometry" />
        </mxCell>
        <mxCell id="SjhaU8M4ZDdy4UAupOeV-9" value="搜索" style="html=1;align=center;verticalAlign=top;rounded=1;absoluteArcSize=1;arcSize=10;dashed=0;whiteSpace=wrap;" parent="1" vertex="1">
          <mxGeometry x="190" y="360" width="80" height="40" as="geometry" />
        </mxCell>
        <mxCell id="SjhaU8M4ZDdy4UAupOeV-29" style="edgeStyle=orthogonalEdgeStyle;rounded=0;orthogonalLoop=1;jettySize=auto;html=1;entryX=0;entryY=0.5;entryDx=0;entryDy=0;" parent="1" source="SjhaU8M4ZDdy4UAupOeV-10" target="SjhaU8M4ZDdy4UAupOeV-8" edge="1">
          <mxGeometry relative="1" as="geometry" />
        </mxCell>
        <mxCell id="SjhaU8M4ZDdy4UAupOeV-31" value="未查询到结果" style="edgeLabel;html=1;align=center;verticalAlign=middle;resizable=0;points=[];" parent="SjhaU8M4ZDdy4UAupOeV-29" vertex="1" connectable="0">
          <mxGeometry x="-0.2868" y="-1" relative="1" as="geometry">
            <mxPoint x="9" y="-16" as="offset" />
          </mxGeometry>
        </mxCell>
        <mxCell id="SjhaU8M4ZDdy4UAupOeV-30" value="查询到结果" style="edgeStyle=orthogonalEdgeStyle;rounded=0;orthogonalLoop=1;jettySize=auto;html=1;entryX=0.5;entryY=0;entryDx=0;entryDy=0;" parent="1" source="SjhaU8M4ZDdy4UAupOeV-10" target="SjhaU8M4ZDdy4UAupOeV-6" edge="1">
          <mxGeometry x="0.1111" y="40" relative="1" as="geometry">
            <mxPoint as="offset" />
          </mxGeometry>
        </mxCell>
        <mxCell id="SjhaU8M4ZDdy4UAupOeV-10" value="" style="rhombus;" parent="1" vertex="1">
          <mxGeometry x="215" y="435" width="30" height="30" as="geometry" />
        </mxCell>
        <mxCell id="SjhaU8M4ZDdy4UAupOeV-22" style="rounded=0;orthogonalLoop=1;jettySize=auto;html=1;entryX=0.9;entryY=0.525;entryDx=0;entryDy=0;entryPerimeter=0;" parent="1" source="SjhaU8M4ZDdy4UAupOeV-11" target="SjhaU8M4ZDdy4UAupOeV-16" edge="1">
          <mxGeometry relative="1" as="geometry" />
        </mxCell>
        <mxCell id="SjhaU8M4ZDdy4UAupOeV-11" value="决定搜索方式" style="html=1;align=center;verticalAlign=top;rounded=1;absoluteArcSize=1;arcSize=10;dashed=0;whiteSpace=wrap;" parent="1" vertex="1">
          <mxGeometry x="127.5" y="220" width="90" height="40" as="geometry" />
        </mxCell>
        <mxCell id="SjhaU8M4ZDdy4UAupOeV-12" value="" style="ellipse;html=1;shape=endState;fillColor=strokeColor;" parent="1" vertex="1">
          <mxGeometry x="480" y="435" width="30" height="30" as="geometry" />
        </mxCell>
        <mxCell id="SjhaU8M4ZDdy4UAupOeV-13" value="" style="ellipse;html=1;shape=endState;fillColor=strokeColor;" parent="1" vertex="1">
          <mxGeometry x="322.5" y="675" width="30" height="30" as="geometry" />
        </mxCell>
        <mxCell id="SjhaU8M4ZDdy4UAupOeV-18" style="edgeStyle=orthogonalEdgeStyle;rounded=0;orthogonalLoop=1;jettySize=auto;html=1;entryX=0.171;entryY=0.499;entryDx=0;entryDy=0;entryPerimeter=0;" parent="1" source="SjhaU8M4ZDdy4UAupOeV-14" target="SjhaU8M4ZDdy4UAupOeV-15" edge="1">
          <mxGeometry relative="1" as="geometry" />
        </mxCell>
        <mxCell id="SjhaU8M4ZDdy4UAupOeV-14" value="决定搜索" style="html=1;align=center;verticalAlign=top;rounded=1;absoluteArcSize=1;arcSize=10;dashed=0;whiteSpace=wrap;" parent="1" vertex="1">
          <mxGeometry x="190" y="90" width="80" height="40" as="geometry" />
        </mxCell>
        <mxCell id="SjhaU8M4ZDdy4UAupOeV-19" style="rounded=0;orthogonalLoop=1;jettySize=auto;html=1;entryX=0.5;entryY=0;entryDx=0;entryDy=0;" parent="1" source="SjhaU8M4ZDdy4UAupOeV-15" target="SjhaU8M4ZDdy4UAupOeV-11" edge="1">
          <mxGeometry relative="1" as="geometry" />
        </mxCell>
        <mxCell id="SjhaU8M4ZDdy4UAupOeV-20" style="rounded=0;orthogonalLoop=1;jettySize=auto;html=1;entryX=0.5;entryY=0;entryDx=0;entryDy=0;" parent="1" source="SjhaU8M4ZDdy4UAupOeV-15" target="SjhaU8M4ZDdy4UAupOeV-2" edge="1">
          <mxGeometry relative="1" as="geometry" />
        </mxCell>
        <mxCell id="SjhaU8M4ZDdy4UAupOeV-15" value="" style="html=1;points=[];perimeter=orthogonalPerimeter;fillColor=strokeColor;direction=south;" parent="1" vertex="1">
          <mxGeometry x="190" y="175" width="80" height="5" as="geometry" />
        </mxCell>
        <mxCell id="SjhaU8M4ZDdy4UAupOeV-27" style="edgeStyle=orthogonalEdgeStyle;rounded=0;orthogonalLoop=1;jettySize=auto;html=1;entryX=0.5;entryY=0;entryDx=0;entryDy=0;" parent="1" source="SjhaU8M4ZDdy4UAupOeV-16" target="SjhaU8M4ZDdy4UAupOeV-9" edge="1">
          <mxGeometry relative="1" as="geometry" />
        </mxCell>
        <mxCell id="SjhaU8M4ZDdy4UAupOeV-16" value="" style="html=1;points=[];perimeter=orthogonalPerimeter;fillColor=strokeColor;direction=south;" parent="1" vertex="1">
          <mxGeometry x="190" y="307.5" width="80" height="5" as="geometry" />
        </mxCell>
        <mxCell id="7Bqvf9NQ2BH0YnOYJtHq-1" value="使用搜索结果" style="html=1;align=center;verticalAlign=top;rounded=1;absoluteArcSize=1;arcSize=10;dashed=0;whiteSpace=wrap;" vertex="1" parent="1">
          <mxGeometry x="185" y="670" width="90" height="40" as="geometry" />
        </mxCell>
        <mxCell id="7Bqvf9NQ2BH0YnOYJtHq-3" value="显示搜索结果" style="html=1;align=center;verticalAlign=top;rounded=1;absoluteArcSize=1;arcSize=10;dashed=0;whiteSpace=wrap;" vertex="1" parent="1">
          <mxGeometry x="185" y="590" width="90" height="40" as="geometry" />
        </mxCell>
      </root>
    </mxGraphModel>
  </diagram>
</mxfile>
